<mxfile host="app.diagrams.net" modified="2021-05-24T13:13:33.895Z" agent="5.0 (Windows NT 10.0; Win64; x64) AppleWebKit/537.36 (KHTML, like Gecko) Chrome/90.0.4430.212 Safari/537.36" etag="CxsUXn9Xhbf7mh4bn1Rr" version="14.7.0" type="github">
  <diagram id="_9sOwTeNTEtvYrkfNjK5" name="Page-1">
    <mxGraphModel dx="1422" dy="737" grid="1" gridSize="10" guides="1" tooltips="1" connect="1" arrows="1" fold="1" page="1" pageScale="1" pageWidth="850" pageHeight="1100" math="0" shadow="0">
      <root>
        <mxCell id="0" />
        <mxCell id="1" parent="0" />
        <mxCell id="66phV0OmoUOgW_qVa-D--9" style="edgeStyle=orthogonalEdgeStyle;rounded=0;orthogonalLoop=1;jettySize=auto;html=1;exitX=1;exitY=0.5;exitDx=0;exitDy=0;entryX=0;entryY=0.5;entryDx=0;entryDy=0;" edge="1" parent="1" source="66phV0OmoUOgW_qVa-D--1" target="66phV0OmoUOgW_qVa-D--50">
          <mxGeometry relative="1" as="geometry" />
        </mxCell>
        <mxCell id="66phV0OmoUOgW_qVa-D--43" style="edgeStyle=orthogonalEdgeStyle;rounded=0;orthogonalLoop=1;jettySize=auto;html=1;exitX=1;exitY=0.5;exitDx=0;exitDy=0;entryX=0;entryY=0.5;entryDx=0;entryDy=0;" edge="1" parent="1" source="66phV0OmoUOgW_qVa-D--1" target="66phV0OmoUOgW_qVa-D--4">
          <mxGeometry relative="1" as="geometry" />
        </mxCell>
        <mxCell id="66phV0OmoUOgW_qVa-D--44" style="edgeStyle=orthogonalEdgeStyle;rounded=0;orthogonalLoop=1;jettySize=auto;html=1;exitX=1;exitY=0.5;exitDx=0;exitDy=0;entryX=0;entryY=0.5;entryDx=0;entryDy=0;" edge="1" parent="1" source="66phV0OmoUOgW_qVa-D--1" target="66phV0OmoUOgW_qVa-D--6">
          <mxGeometry relative="1" as="geometry" />
        </mxCell>
        <mxCell id="66phV0OmoUOgW_qVa-D--45" style="edgeStyle=orthogonalEdgeStyle;rounded=0;orthogonalLoop=1;jettySize=auto;html=1;exitX=1;exitY=0.5;exitDx=0;exitDy=0;entryX=0;entryY=0.5;entryDx=0;entryDy=0;" edge="1" parent="1" source="66phV0OmoUOgW_qVa-D--1" target="66phV0OmoUOgW_qVa-D--5">
          <mxGeometry relative="1" as="geometry" />
        </mxCell>
        <mxCell id="66phV0OmoUOgW_qVa-D--46" style="edgeStyle=orthogonalEdgeStyle;rounded=0;orthogonalLoop=1;jettySize=auto;html=1;exitX=1;exitY=0.5;exitDx=0;exitDy=0;entryX=0;entryY=0.5;entryDx=0;entryDy=0;" edge="1" parent="1" source="66phV0OmoUOgW_qVa-D--1" target="66phV0OmoUOgW_qVa-D--7">
          <mxGeometry relative="1" as="geometry" />
        </mxCell>
        <mxCell id="66phV0OmoUOgW_qVa-D--51" style="edgeStyle=orthogonalEdgeStyle;rounded=0;orthogonalLoop=1;jettySize=auto;html=1;exitX=1;exitY=0.5;exitDx=0;exitDy=0;entryX=0;entryY=0.5;entryDx=0;entryDy=0;" edge="1" parent="1" source="66phV0OmoUOgW_qVa-D--1" target="66phV0OmoUOgW_qVa-D--49">
          <mxGeometry relative="1" as="geometry" />
        </mxCell>
        <mxCell id="66phV0OmoUOgW_qVa-D--52" style="edgeStyle=orthogonalEdgeStyle;rounded=0;orthogonalLoop=1;jettySize=auto;html=1;exitX=1;exitY=0.5;exitDx=0;exitDy=0;entryX=0;entryY=0.5;entryDx=0;entryDy=0;" edge="1" parent="1" source="66phV0OmoUOgW_qVa-D--1" target="66phV0OmoUOgW_qVa-D--48">
          <mxGeometry relative="1" as="geometry" />
        </mxCell>
        <mxCell id="66phV0OmoUOgW_qVa-D--53" style="edgeStyle=orthogonalEdgeStyle;rounded=0;orthogonalLoop=1;jettySize=auto;html=1;exitX=1;exitY=0.5;exitDx=0;exitDy=0;entryX=0;entryY=0.5;entryDx=0;entryDy=0;" edge="1" parent="1" source="66phV0OmoUOgW_qVa-D--1" target="66phV0OmoUOgW_qVa-D--47">
          <mxGeometry relative="1" as="geometry" />
        </mxCell>
        <mxCell id="66phV0OmoUOgW_qVa-D--1" value="Rest server" style="rounded=0;whiteSpace=wrap;html=1;fillColor=#ffe6cc;strokeColor=#d79b00;" vertex="1" parent="1">
          <mxGeometry y="220" width="160" height="60" as="geometry" />
        </mxCell>
        <mxCell id="66phV0OmoUOgW_qVa-D--2" value="Static files router:" style="rounded=0;whiteSpace=wrap;html=1;fillColor=#ffe6cc;strokeColor=#d79b00;" vertex="1" parent="1">
          <mxGeometry x="240" width="160" height="60" as="geometry" />
        </mxCell>
        <mxCell id="66phV0OmoUOgW_qVa-D--3" value="Question router:" style="rounded=0;whiteSpace=wrap;html=1;fillColor=#ffe6cc;strokeColor=#d79b00;" vertex="1" parent="1">
          <mxGeometry x="240" y="280" width="160" height="60" as="geometry" />
        </mxCell>
        <mxCell id="66phV0OmoUOgW_qVa-D--39" style="edgeStyle=orthogonalEdgeStyle;rounded=0;orthogonalLoop=1;jettySize=auto;html=1;exitX=1;exitY=0.5;exitDx=0;exitDy=0;" edge="1" parent="1" source="66phV0OmoUOgW_qVa-D--4" target="66phV0OmoUOgW_qVa-D--23">
          <mxGeometry relative="1" as="geometry" />
        </mxCell>
        <mxCell id="66phV0OmoUOgW_qVa-D--4" value="GET&lt;br&gt;/question" style="rounded=0;whiteSpace=wrap;html=1;" vertex="1" parent="1">
          <mxGeometry x="240" y="340" width="160" height="40" as="geometry" />
        </mxCell>
        <mxCell id="66phV0OmoUOgW_qVa-D--41" style="edgeStyle=orthogonalEdgeStyle;rounded=0;orthogonalLoop=1;jettySize=auto;html=1;exitX=1;exitY=0.5;exitDx=0;exitDy=0;" edge="1" parent="1" source="66phV0OmoUOgW_qVa-D--5" target="66phV0OmoUOgW_qVa-D--25">
          <mxGeometry relative="1" as="geometry" />
        </mxCell>
        <mxCell id="66phV0OmoUOgW_qVa-D--5" value="POST&lt;br&gt;/question" style="rounded=0;whiteSpace=wrap;html=1;" vertex="1" parent="1">
          <mxGeometry x="240" y="420" width="160" height="40" as="geometry" />
        </mxCell>
        <mxCell id="66phV0OmoUOgW_qVa-D--40" style="edgeStyle=orthogonalEdgeStyle;rounded=0;orthogonalLoop=1;jettySize=auto;html=1;exitX=1;exitY=0.5;exitDx=0;exitDy=0;" edge="1" parent="1" source="66phV0OmoUOgW_qVa-D--6" target="66phV0OmoUOgW_qVa-D--24">
          <mxGeometry relative="1" as="geometry" />
        </mxCell>
        <mxCell id="66phV0OmoUOgW_qVa-D--6" value="GET&lt;br&gt;/question/:id" style="rounded=0;whiteSpace=wrap;html=1;" vertex="1" parent="1">
          <mxGeometry x="240" y="380" width="160" height="40" as="geometry" />
        </mxCell>
        <mxCell id="66phV0OmoUOgW_qVa-D--42" style="edgeStyle=orthogonalEdgeStyle;rounded=0;orthogonalLoop=1;jettySize=auto;html=1;exitX=1;exitY=0.5;exitDx=0;exitDy=0;entryX=0;entryY=0.5;entryDx=0;entryDy=0;" edge="1" parent="1" source="66phV0OmoUOgW_qVa-D--7" target="66phV0OmoUOgW_qVa-D--26">
          <mxGeometry relative="1" as="geometry" />
        </mxCell>
        <mxCell id="66phV0OmoUOgW_qVa-D--7" value="PATCH&lt;br&gt;/question" style="rounded=0;whiteSpace=wrap;html=1;" vertex="1" parent="1">
          <mxGeometry x="240" y="460" width="160" height="50" as="geometry" />
        </mxCell>
        <mxCell id="66phV0OmoUOgW_qVa-D--14" value="List question page" style="rounded=0;whiteSpace=wrap;html=1;" vertex="1" parent="1">
          <mxGeometry x="480" y="60" width="160" height="40" as="geometry" />
        </mxCell>
        <mxCell id="66phV0OmoUOgW_qVa-D--15" value="View question page" style="rounded=0;whiteSpace=wrap;html=1;" vertex="1" parent="1">
          <mxGeometry x="480" y="140" width="160" height="40" as="geometry" />
        </mxCell>
        <mxCell id="66phV0OmoUOgW_qVa-D--18" value="Create question page" style="rounded=0;whiteSpace=wrap;html=1;" vertex="1" parent="1">
          <mxGeometry x="480" y="100" width="160" height="40" as="geometry" />
        </mxCell>
        <mxCell id="66phV0OmoUOgW_qVa-D--20" value="Select question page" style="rounded=0;whiteSpace=wrap;html=1;" vertex="1" parent="1">
          <mxGeometry x="480" y="180" width="160" height="40" as="geometry" />
        </mxCell>
        <mxCell id="66phV0OmoUOgW_qVa-D--22" value="Question service" style="rounded=0;whiteSpace=wrap;html=1;fillColor=#ffe6cc;strokeColor=#d79b00;" vertex="1" parent="1">
          <mxGeometry x="480" y="280" width="160" height="60" as="geometry" />
        </mxCell>
        <mxCell id="66phV0OmoUOgW_qVa-D--35" style="edgeStyle=orthogonalEdgeStyle;rounded=0;orthogonalLoop=1;jettySize=auto;html=1;exitX=1;exitY=0.5;exitDx=0;exitDy=0;entryX=0;entryY=0.5;entryDx=0;entryDy=0;" edge="1" parent="1" source="66phV0OmoUOgW_qVa-D--23" target="66phV0OmoUOgW_qVa-D--31">
          <mxGeometry relative="1" as="geometry" />
        </mxCell>
        <mxCell id="66phV0OmoUOgW_qVa-D--23" value="getQuestionList" style="rounded=0;whiteSpace=wrap;html=1;" vertex="1" parent="1">
          <mxGeometry x="480" y="340" width="160" height="40" as="geometry" />
        </mxCell>
        <mxCell id="66phV0OmoUOgW_qVa-D--36" style="edgeStyle=orthogonalEdgeStyle;rounded=0;orthogonalLoop=1;jettySize=auto;html=1;exitX=1;exitY=0.5;exitDx=0;exitDy=0;entryX=0;entryY=0.5;entryDx=0;entryDy=0;" edge="1" parent="1" source="66phV0OmoUOgW_qVa-D--24" target="66phV0OmoUOgW_qVa-D--31">
          <mxGeometry relative="1" as="geometry" />
        </mxCell>
        <mxCell id="66phV0OmoUOgW_qVa-D--24" value="getQuestion" style="rounded=0;whiteSpace=wrap;html=1;" vertex="1" parent="1">
          <mxGeometry x="480" y="380" width="160" height="40" as="geometry" />
        </mxCell>
        <mxCell id="66phV0OmoUOgW_qVa-D--37" style="edgeStyle=orthogonalEdgeStyle;rounded=0;orthogonalLoop=1;jettySize=auto;html=1;exitX=1;exitY=0.5;exitDx=0;exitDy=0;entryX=0;entryY=0.5;entryDx=0;entryDy=0;" edge="1" parent="1" source="66phV0OmoUOgW_qVa-D--25" target="66phV0OmoUOgW_qVa-D--31">
          <mxGeometry relative="1" as="geometry">
            <mxPoint x="700" y="430" as="targetPoint" />
          </mxGeometry>
        </mxCell>
        <mxCell id="66phV0OmoUOgW_qVa-D--25" value="addQuestion" style="rounded=0;whiteSpace=wrap;html=1;" vertex="1" parent="1">
          <mxGeometry x="480" y="420" width="160" height="40" as="geometry" />
        </mxCell>
        <mxCell id="66phV0OmoUOgW_qVa-D--38" style="edgeStyle=orthogonalEdgeStyle;rounded=0;orthogonalLoop=1;jettySize=auto;html=1;exitX=1;exitY=0.5;exitDx=0;exitDy=0;entryX=0;entryY=0.5;entryDx=0;entryDy=0;" edge="1" parent="1" source="66phV0OmoUOgW_qVa-D--26" target="66phV0OmoUOgW_qVa-D--31">
          <mxGeometry relative="1" as="geometry" />
        </mxCell>
        <mxCell id="66phV0OmoUOgW_qVa-D--26" value="selectQuestion" style="rounded=0;whiteSpace=wrap;html=1;" vertex="1" parent="1">
          <mxGeometry x="480" y="460" width="160" height="50" as="geometry" />
        </mxCell>
        <mxCell id="66phV0OmoUOgW_qVa-D--31" value="Question database" style="rounded=0;whiteSpace=wrap;html=1;fillColor=#ffe6cc;strokeColor=#d79b00;" vertex="1" parent="1">
          <mxGeometry x="720" y="390" width="160" height="60" as="geometry" />
        </mxCell>
        <mxCell id="66phV0OmoUOgW_qVa-D--54" style="edgeStyle=orthogonalEdgeStyle;rounded=0;orthogonalLoop=1;jettySize=auto;html=1;exitX=1;exitY=0.5;exitDx=0;exitDy=0;" edge="1" parent="1" source="66phV0OmoUOgW_qVa-D--47" target="66phV0OmoUOgW_qVa-D--14">
          <mxGeometry relative="1" as="geometry" />
        </mxCell>
        <mxCell id="66phV0OmoUOgW_qVa-D--47" value="GET&lt;br&gt;/" style="rounded=0;whiteSpace=wrap;html=1;" vertex="1" parent="1">
          <mxGeometry x="240" y="60" width="160" height="40" as="geometry" />
        </mxCell>
        <mxCell id="66phV0OmoUOgW_qVa-D--55" style="edgeStyle=orthogonalEdgeStyle;rounded=0;orthogonalLoop=1;jettySize=auto;html=1;exitX=1;exitY=0.5;exitDx=0;exitDy=0;entryX=0;entryY=0.5;entryDx=0;entryDy=0;" edge="1" parent="1" source="66phV0OmoUOgW_qVa-D--48" target="66phV0OmoUOgW_qVa-D--18">
          <mxGeometry relative="1" as="geometry" />
        </mxCell>
        <mxCell id="66phV0OmoUOgW_qVa-D--48" value="GET&lt;br&gt;/create" style="rounded=0;whiteSpace=wrap;html=1;" vertex="1" parent="1">
          <mxGeometry x="240" y="100" width="160" height="40" as="geometry" />
        </mxCell>
        <mxCell id="66phV0OmoUOgW_qVa-D--56" style="edgeStyle=orthogonalEdgeStyle;rounded=0;orthogonalLoop=1;jettySize=auto;html=1;exitX=1;exitY=0.5;exitDx=0;exitDy=0;entryX=0;entryY=0.5;entryDx=0;entryDy=0;" edge="1" parent="1" source="66phV0OmoUOgW_qVa-D--49" target="66phV0OmoUOgW_qVa-D--15">
          <mxGeometry relative="1" as="geometry" />
        </mxCell>
        <mxCell id="66phV0OmoUOgW_qVa-D--49" value="GET&lt;br&gt;/view" style="rounded=0;whiteSpace=wrap;html=1;" vertex="1" parent="1">
          <mxGeometry x="240" y="140" width="160" height="40" as="geometry" />
        </mxCell>
        <mxCell id="66phV0OmoUOgW_qVa-D--57" style="edgeStyle=orthogonalEdgeStyle;rounded=0;orthogonalLoop=1;jettySize=auto;html=1;exitX=1;exitY=0.5;exitDx=0;exitDy=0;entryX=0;entryY=0.5;entryDx=0;entryDy=0;" edge="1" parent="1" source="66phV0OmoUOgW_qVa-D--50" target="66phV0OmoUOgW_qVa-D--20">
          <mxGeometry relative="1" as="geometry" />
        </mxCell>
        <mxCell id="66phV0OmoUOgW_qVa-D--50" value="GET&lt;br&gt;/select" style="rounded=0;whiteSpace=wrap;html=1;" vertex="1" parent="1">
          <mxGeometry x="240" y="180" width="160" height="40" as="geometry" />
        </mxCell>
        <mxCell id="66phV0OmoUOgW_qVa-D--58" value="Pages" style="rounded=0;whiteSpace=wrap;html=1;fillColor=#ffe6cc;strokeColor=#d79b00;" vertex="1" parent="1">
          <mxGeometry x="480" width="160" height="60" as="geometry" />
        </mxCell>
      </root>
    </mxGraphModel>
  </diagram>
</mxfile>
